<?xml version="1.0" encoding="UTF-8"?>
<svg xmlns="http://www.w3.org/2000/svg" xmlns:xlink="http://www.w3.org/1999/xlink" width="500pt" height="500pt" viewBox="0 0 500 500" version="1.1">
<g id="surface1">
<path style=" stroke:none;fill-rule:nonzero;fill:rgb(13.299561%,12.199402%,12.199402%);fill-opacity:1;" d="M 109.695313 377.851563 L 109.695313 394.09375 L 121.078125 394.09375 C 124.125 394.09375 126.59375 392.355469 126.59375 389.378906 L 126.59375 382.636719 C 126.59375 379.519531 123.980469 377.851563 120.71875 377.851563 Z M 100.265625 420.273438 L 100.265625 369.4375 L 121.804688 369.4375 C 130.652344 369.4375 135.945313 374.804688 135.945313 380.605469 L 135.945313 391.410156 C 135.945313 395.472656 133.191406 399.460938 128.40625 401.347656 L 136.960938 420.273438 L 127.101563 420.273438 L 119.050781 402.433594 L 109.695313 402.433594 L 109.695313 420.273438 "/>
<path style=" stroke:none;fill-rule:nonzero;fill:rgb(13.299561%,12.199402%,12.199402%);fill-opacity:1;" d="M 154.585938 420.273438 L 154.585938 377.777344 L 141.964844 377.777344 L 141.964844 369.4375 L 175.542969 369.4375 L 175.542969 377.777344 L 163.9375 377.777344 L 163.9375 420.273438 "/>
<path style=" stroke:none;fill-rule:nonzero;fill:rgb(13.299561%,12.199402%,12.199402%);fill-opacity:1;" d="M 186.925781 405.773438 L 186.925781 409.035156 C 186.925781 413.53125 191.132813 416.941406 196.574219 416.941406 L 202.589844 416.941406 C 208.175781 416.941406 212.527344 414.253906 212.527344 409.542969 L 212.527344 405.988281 C 212.527344 398.15625 184.460938 396.703125 184.460938 383.289063 L 184.460938 378.71875 C 184.460938 373.570313 189.320313 369.074219 195.847656 369.074219 L 202.589844 369.074219 C 209.914063 369.074219 215.28125 373.933594 215.28125 379.519531 L 215.28125 384.085938 L 211.074219 384.085938 L 211.074219 380.242188 C 211.074219 376.035156 207.160156 372.84375 202.230469 372.84375 L 196.425781 372.84375 C 192.148438 372.84375 188.667969 375.671875 188.667969 379.371094 L 188.667969 383.074219 C 188.667969 393.078125 216.734375 394.382813 216.734375 405.410156 L 216.734375 410.265625 C 216.734375 416.648438 210.859375 420.710938 202.953125 420.710938 L 196.425781 420.710938 C 188.523438 420.710938 182.722656 415.632813 182.722656 409.683594 L 182.722656 405.773438 "/>
<path style=" stroke:none;fill-rule:nonzero;fill:rgb(13.299561%,12.199402%,12.199402%);fill-opacity:1;" d="M 237.691406 420.273438 L 237.691406 373.210938 L 223.476563 373.210938 L 223.476563 369.511719 L 255.460938 369.511719 L 255.460938 373.210938 L 241.898438 373.210938 L 241.898438 420.273438 "/>
<path style=" stroke:none;fill-rule:nonzero;fill:rgb(13.299561%,12.199402%,12.199402%);fill-opacity:1;" d="M 267.132813 400.1875 L 284.828125 400.1875 L 275.980469 374.585938 Z M 278.15625 369.148438 L 296.070313 420.273438 L 291.789063 420.273438 L 286.132813 403.957031 L 265.828125 403.957031 L 260.242188 420.273438 L 255.964844 420.273438 L 273.949219 369.148438 "/>
<path style=" stroke:none;fill-rule:nonzero;fill:rgb(13.299561%,12.199402%,12.199402%);fill-opacity:1;" d="M 310.9375 420.273438 L 310.9375 373.210938 L 296.722656 373.210938 L 296.722656 369.511719 L 328.703125 369.511719 L 328.703125 373.210938 L 315.144531 373.210938 L 315.144531 420.273438 "/>
<path style=" stroke:none;fill-rule:nonzero;fill:rgb(13.299561%,12.199402%,12.199402%);fill-opacity:1;" d="M 338.132813 420.273438 L 342.335938 420.273438 L 342.335938 369.511719 L 338.132813 369.511719 Z M 338.132813 420.273438 "/>
<path style=" stroke:none;fill-rule:nonzero;fill:rgb(13.299561%,12.199402%,12.199402%);fill-opacity:1;" d="M 378.160156 416.941406 C 382.65625 416.941406 386.210938 413.53125 386.210938 409.035156 L 386.210938 380.753906 C 386.210938 376.253906 382.65625 372.847656 378.160156 372.847656 L 368.660156 372.847656 C 364.164063 372.847656 360.609375 376.253906 360.609375 380.753906 L 360.609375 409.035156 C 360.609375 413.53125 364.164063 416.941406 368.660156 416.941406 Z M 368.441406 420.710938 C 361.480469 420.710938 356.402344 415.632813 356.402344 409.6875 L 356.402344 380.097656 C 356.402344 374.152344 361.480469 369.074219 368.441406 369.074219 L 378.523438 369.074219 C 385.414063 369.074219 390.417969 374.152344 390.417969 380.097656 L 390.417969 409.6875 C 390.417969 415.632813 385.414063 420.710938 378.523438 420.710938 "/>
<path style=" stroke:none;fill-rule:nonzero;fill:rgb(13.299561%,12.199402%,12.199402%);fill-opacity:1;" d="M 404.484375 420.273438 L 404.484375 369.511719 L 408.835938 369.511719 L 434.289063 412.878906 L 434.289063 369.4375 L 438.496094 369.4375 L 438.496094 420.273438 L 434.144531 420.273438 L 408.691406 376.835938 L 408.691406 420.273438 "/>
<path style=" stroke:none;fill-rule:nonzero;fill:rgb(13.299561%,12.199402%,12.199402%);fill-opacity:1;" d="M 65.023438 400.621094 L 77.421875 400.621094 L 71.113281 380.894531 Z M 75.972656 369.292969 L 93.089844 420.273438 L 83.660156 420.273438 L 80.035156 408.960938 L 62.410156 408.960938 L 58.933594 420.273438 L 49.503906 420.273438 L 66.617188 369.292969 "/>
<path style=" stroke:none;fill-rule:nonzero;fill:rgb(7.499695%,68.199158%,93.699646%);fill-opacity:1;" d="M 95.667969 276.578125 L 120.726563 319.894531 L 120.730469 319.902344 C 125.667969 329.675781 135.789063 336.382813 147.488281 336.382813 L 147.511719 336.378906 L 147.511719 336.382813 L 313.828125 336.382813 L 279.3125 276.578125 "/>
<path style=" stroke:none;fill-rule:nonzero;fill:rgb(7.499695%,68.199158%,93.699646%);fill-opacity:1;" d="M 392.332031 276.886719 C 392.332031 270.898438 390.570313 265.324219 387.542969 260.644531 L 290.082031 91.222656 C 285.050781 81.746094 275.085938 75.289063 263.605469 75.289063 L 212.101563 75.289063 L 362.640625 336.121094 L 386.371094 295.023438 C 391.054688 287.148438 392.332031 283.664063 392.332031 276.886719 "/>
<path style=" stroke:none;fill-rule:nonzero;fill:rgb(7.499695%,68.199158%,93.699646%);fill-opacity:1;" d="M 254.769531 234.089844 L 187.484375 117.546875 L 120.199219 234.089844 "/>
</g>
</svg>
