<svg id="Layer_1" data-name="Layer 1" xmlns="http://www.w3.org/2000/svg" viewBox="0 0 1118.37 891.35"><defs><style>.cls-1{fill:#fff;}</style></defs><path class="cls-1" d="M701.81,811.56,578.48,598a59.89,59.89,0,0,0-103.74,0L351.41,811.56a59.9,59.9,0,0,0,51.88,89.85H649.94a59.9,59.9,0,0,0,51.87-89.85ZM414.67,834.94l112-193.89L638.55,834.94Z" transform="translate(-343.29 -288.96)"/><path class="cls-1" d="M810.14,650.69v7.66a21,21,0,0,1-.34-3.82A21.26,21.26,0,0,1,810.14,650.69Z" transform="translate(-343.29 -288.96)"/><path class="cls-1" d="M972.42,654.82q2.63-.47,5.22-1A20.14,20.14,0,0,0,972.42,654.82Z" transform="translate(-343.29 -288.96)"/><path class="cls-1" d="M1114,842,965.34,693.27A23.22,23.22,0,0,1,962,690L929.5,657.44c3.38.19,6.8.28,10.24.28a184.5,184.5,0,0,0,32.68-2.9,20.14,20.14,0,0,1,5.22-1s0,0,0,0c83.54-17.57,146.44-91.78,146.44-180.45,0-101.67-82.73-184.38-184.38-184.38S755.38,371.65,755.36,473.32h-.23l-.21,386.33v3.87h.25v0a33,33,0,0,0,33,33h33v-33h.25v-3.87L821.48,700a20.85,20.85,0,0,1-.34-3.81,21.18,21.18,0,0,1,.34-3.84l0-49,36,36a19.67,19.67,0,0,1,2.66,2.66.75.75,0,0,0,.11.13l204.42,204.4,2.37,2.37.17-.17a33,33,0,0,0,23.68,10h33v-33a33,33,0,0,0-10-23.68ZM821.82,473.34A117.92,117.92,0,1,1,939.74,591.25,118,118,0,0,1,821.82,473.34Z" transform="translate(-343.29 -288.96)"/><path class="cls-1" d="M848.79,640.36l-2.66-2.66A20.26,20.26,0,0,1,848.79,640.36Z" transform="translate(-343.29 -288.96)"/><path class="cls-1" d="M954,651.61a23.22,23.22,0,0,1-3.32-3.33Z" transform="translate(-343.29 -288.96)"/><path class="cls-1" d="M1431.62,684.57l-167.5-101.8a62.51,62.51,0,0,0-95,53.42V839.8a62.53,62.53,0,0,0,95,53.42l167.5-101.81a62.52,62.52,0,0,0,0-106.84Zm-196,148.23V643.19l156,94.8Z" transform="translate(-343.29 -288.96)"/><path class="cls-1" d="M1163.32,945.75v164.19a70.38,70.38,0,0,1-140.75,0V945.75H1046v164.19a46.92,46.92,0,1,0,93.83,0V945.75Z" transform="translate(-343.29 -288.96)"/><path class="cls-1" d="M975.65,1062.38c0,4.09,0,7.91-.06,11.5v.88H963.85a11.71,11.71,0,0,1-10.57-6.67v0c-.68-3.51-1.08-5.68-1.08-5.68s0-.1,0-.28a0,0,0,0,1,0,0c-.2-5.51-4.7-80.28-93.81-91.5v209.75H846.65a11.73,11.73,0,0,1-11.74-11.73V945.75S975.65,931.67,975.65,1062.38Z" transform="translate(-343.29 -288.96)"/><path class="cls-1" d="M953.28,1068.06a11.37,11.37,0,0,1-1.14-5,7,7,0,0,1,.05-.92c0,.18,0,.28,0,.28S952.6,1064.55,953.28,1068.06Z" transform="translate(-343.29 -288.96)"/><path class="cls-1" d="M788,1063a11.73,11.73,0,0,1-11.74,11.74H659a11.73,11.73,0,1,1,0-23.45H776.27A11.72,11.72,0,0,1,788,1063Z" transform="translate(-343.29 -288.96)"/><path class="cls-1" d="M788,957.47a11.73,11.73,0,0,1-11.74,11.73H659a11.73,11.73,0,1,1,0-23.45H776.27A11.73,11.73,0,0,1,788,957.47Z" transform="translate(-343.29 -288.96)"/><path class="cls-1" d="M788,1168.58a11.72,11.72,0,0,1-11.74,11.73H659a11.73,11.73,0,1,1,0-23.45H776.27A11.73,11.73,0,0,1,788,1168.58Z" transform="translate(-343.29 -288.96)"/><path class="cls-1" d="M975.65,1166.69v13.62H962a13.66,13.66,0,0,1-11.09-5.7l-86.77-86.76a13.65,13.65,0,1,1,19.05-19L970,1155.64A13.58,13.58,0,0,1,975.65,1166.69Z" transform="translate(-343.29 -288.96)"/><path class="cls-1" d="M1336.23,1074.76a64.51,64.51,0,0,1-49.76,105.55H1222a11.73,11.73,0,0,1,0-23.45h64.52a41.05,41.05,0,0,0,0-82.1h-11.74a64.51,64.51,0,0,1,0-129h64.51a11.73,11.73,0,1,1,0,23.45h-64.51a41.06,41.06,0,0,0,0,82.11h11.74a64.35,64.35,0,0,1,49.76,23.45Z" transform="translate(-343.29 -288.96)"/><path class="cls-1" d="M600.35,957.47v208.4a13.54,13.54,0,0,1-.27,2.71v11.73H585.9a14.45,14.45,0,0,1-13.59-9.56l0-.08L483.07,990.24v178.34a11.74,11.74,0,0,1-23.47,0V945.85h15.78a15.74,15.74,0,0,1,14.11,8.74,1.27,1.27,0,0,1,.12.23l87.28,176.72V957.47a11.73,11.73,0,0,1,23.46,0Z" transform="translate(-343.29 -288.96)"/></svg>