<svg id="Layer_1" data-name="Layer 1" xmlns="http://www.w3.org/2000/svg" viewBox="0 0 93.38 32.55"><defs><style>.cls-1,.cls-2{fill:#fff;}.cls-2{fill-rule:evenodd;}.cls-3{fill:#1bb76e;}</style></defs><path class="cls-1" d="M86.8,17.34c0-1.73.18-2.34,1.76-3,.57-.23,1.15-.42,1.7-.6,1.69-.55,3.12-1,3.12-2.53a2.73,2.73,0,0,0-2.87-2.49,5.66,5.66,0,0,0-3.85,1.69A3.07,3.07,0,0,0,84,8.81c-1.94,0-2.84,1.18-2.84,3.64V22.57c0,2.46.9,3.68,2.84,3.68S86.8,25,86.8,22.57Z" transform="translate(0 -0.76)"/><path class="cls-1" d="M61.08,19.16c0,4.82,3.06,7.38,8.56,7.38s8.57-2.56,8.57-7.38V12.45c0-2.46-.87-3.64-2.81-3.64S72.56,10,72.56,12.45v5.68c0,2.37-.61,3.68-2.92,3.68s-2.91-1.31-2.91-3.68V12.45c0-2.46-.9-3.64-2.8-3.64S61.08,10,61.08,12.45Z" transform="translate(0 -0.76)"/><path class="cls-2" d="M48.24,33.31c4,0,7-1.31,8.64-3.77,1.11-1.63,1.33-3.93,1.33-7V12.45c0-2.46-.9-3.64-2.84-3.64a3.11,3.11,0,0,0-2.52,1.59,5.84,5.84,0,0,0-4.53-1.79,8.78,8.78,0,0,0-8.81,8.92c0,5.11,3.74,8.75,8.2,8.75a6.14,6.14,0,0,0,5.14-2.36c0,.11,0,.22,0,.32a2.72,2.72,0,0,1,0,.28c0,2.75-1.65,4.25-4.42,4.25a11.69,11.69,0,0,1-4.16-.85,5.9,5.9,0,0,0-1.92-.49,2.26,2.26,0,0,0-2.44,2.2C39.94,31.62,43.07,33.31,48.24,33.31ZM45.37,17.53c0-2.53,1.62-4.12,3.7-4.12s3.74,1.59,3.74,4.12-1.62,4.21-3.74,4.21S45.37,20.11,45.37,17.53Z" transform="translate(0 -0.76)"/><path class="cls-1" d="M31.59,22.57c0,2.46.87,3.68,2.81,3.68s2.84-1.22,2.84-3.68V15.36c0-4.35-2.48-6.62-6.4-6.62a7.41,7.41,0,0,0-5.72,2.37,7,7,0,0,0-5.65-2.37,6.1,6.1,0,0,0-4.53,1.66,3,3,0,0,0-2.7-1.59C10.3,8.81,9.4,10,9.4,12.45V22.57c0,2.46.9,3.68,2.84,3.68s2.84-1.22,2.84-3.68V16.83c0-2.5.8-3.77,2.84-3.77,1.84,0,2.56,1.27,2.56,3.83v5.68c0,2.46.9,3.68,2.84,3.68s2.84-1.22,2.84-3.68V16.83c0-2.5.79-3.77,2.84-3.77,1.84,0,2.59,1.27,2.59,3.83Z" transform="translate(0 -0.76)"/><path class="cls-1" d="M6.24,12.45c0-2.46-.9-3.64-2.81-3.64S.59,10,.59,12.45V22.57c0,2.46.9,3.68,2.84,3.68S6.24,25,6.24,22.57Z" transform="translate(0 -0.76)"/><path class="cls-3" d="M3.52.76A3.31,3.31,0,0,0,0,3.76a3.26,3.26,0,0,0,3.52,3A3.25,3.25,0,0,0,7,3.76,3.27,3.27,0,0,0,3.52.76Z" transform="translate(0 -0.76)"/></svg>